<?xml version="1.0" encoding="UTF-8" standalone="no"?>
<!DOCTYPE svg PUBLIC "-//W3C//DTD SVG 1.1//EN" "http://www.w3.org/Graphics/SVG/1.1/DTD/svg11.dtd">
<svg width="100%" height="100%" viewBox="0 0 28 31" version="1.1" xmlns="http://www.w3.org/2000/svg" xmlns:xlink="http://www.w3.org/1999/xlink" xml:space="preserve" xmlns:serif="http://www.serif.com/" style="fill-rule:evenodd;clip-rule:evenodd;stroke-linejoin:round;stroke-miterlimit:2;">
    <g id="svgg" transform="matrix(0.166667,0,0,0.164021,0,0)">
        <path id="path1" d="M99.653,3.91C99.584,3.98 99.527,8.45 99.527,13.844L99.527,23.652L100.085,23.652C100.42,23.652 100.718,23.784 100.829,23.983C100.931,24.165 101.063,24.293 101.122,24.267C101.517,24.093 102.365,24.255 102.365,24.503C102.365,24.714 102.586,24.787 103.217,24.787C103.847,24.787 104.068,24.861 104.068,25.071C104.068,25.281 104.289,25.355 104.92,25.355C105.55,25.355 105.771,25.428 105.771,25.639C105.771,25.848 105.99,25.922 106.602,25.922C107.167,25.922 107.468,26.014 107.542,26.206C107.614,26.392 107.908,26.49 108.394,26.49C108.879,26.49 109.174,26.588 109.245,26.774C109.317,26.961 109.614,27.058 110.117,27.058C110.669,27.058 110.88,27.136 110.88,27.342C110.88,27.552 111.101,27.625 111.731,27.625C112.362,27.625 112.583,27.699 112.583,27.909C112.583,28.107 112.783,28.193 113.245,28.193C113.674,28.193 113.891,28.276 113.86,28.43C113.829,28.583 114.132,28.699 114.716,28.761C115.213,28.813 115.615,28.94 115.61,29.044C115.605,29.149 115.988,29.276 116.462,29.328C116.935,29.38 117.299,29.508 117.27,29.612C117.242,29.716 117.559,29.829 117.975,29.863C118.392,29.896 118.8,30.045 118.884,30.194C118.975,30.357 119.333,30.464 119.788,30.464C120.283,30.464 120.579,30.561 120.651,30.747C120.722,30.932 121.016,31.031 121.496,31.031C122.025,31.031 122.233,31.111 122.233,31.315C122.233,31.525 122.453,31.599 123.084,31.599C123.715,31.599 123.936,31.672 123.936,31.883C123.936,32.092 124.154,32.167 124.767,32.167C125.331,32.167 125.633,32.258 125.707,32.45C125.778,32.636 126.073,32.734 126.558,32.734C127.044,32.734 127.339,32.832 127.41,33.018C127.481,33.204 127.776,33.302 128.261,33.302C128.747,33.302 129.042,33.4 129.113,33.586C129.173,33.742 129.44,33.869 129.707,33.869C129.973,33.869 130.234,33.98 130.286,34.115C130.338,34.25 130.697,34.38 131.084,34.405C131.471,34.429 131.887,34.58 132.007,34.739C132.128,34.899 132.277,35.024 132.338,35.017C133.086,34.933 133.767,35.043 133.728,35.241C133.697,35.394 133.999,35.511 134.584,35.572C135.081,35.624 135.464,35.752 135.435,35.856C135.407,35.96 135.724,36.073 136.14,36.107C136.556,36.141 136.965,36.29 137.048,36.438C137.144,36.608 137.51,36.708 138.042,36.708C138.614,36.708 138.869,36.783 138.836,36.944C138.806,37.097 139.108,37.214 139.692,37.275C140.189,37.327 140.572,37.455 140.544,37.559C140.515,37.663 140.833,37.776 141.249,37.81C141.665,37.844 142.074,37.993 142.157,38.141C142.253,38.311 142.618,38.411 143.15,38.411C143.723,38.411 143.977,38.486 143.945,38.647C143.917,38.789 144.145,38.907 144.513,38.943C144.906,38.981 145.128,39.104 145.128,39.285C145.128,39.441 145.213,39.516 145.317,39.451C145.443,39.374 145.514,48.38 145.53,66.309C145.543,81.144 145.575,93.368 145.601,93.472C145.627,93.576 145.659,93.789 145.672,93.945C145.688,94.147 145.917,94.229 146.458,94.229C146.962,94.229 147.258,94.325 147.33,94.513C147.401,94.698 147.696,94.797 148.181,94.797C148.667,94.797 148.962,94.895 149.033,95.08C149.099,95.254 149.386,95.364 149.77,95.364C150.116,95.364 150.526,95.492 150.683,95.648C150.839,95.804 151.094,95.932 151.25,95.932C151.406,95.932 151.656,96.054 151.806,96.204C151.955,96.353 152.451,96.514 152.907,96.56C153.385,96.608 153.717,96.734 153.69,96.856C153.664,96.972 153.877,97.08 154.163,97.095C154.449,97.111 154.853,97.132 155.061,97.142C155.27,97.153 155.419,97.268 155.393,97.398C155.367,97.528 155.537,97.647 155.771,97.663C156.005,97.678 156.325,97.708 156.481,97.729C156.637,97.751 156.876,97.781 157.012,97.796C157.148,97.811 157.207,97.909 157.143,98.013C157.079,98.117 157.18,98.209 157.368,98.217C158.012,98.243 158.627,98.399 158.865,98.597C158.996,98.705 159.373,98.829 159.704,98.87C160.035,98.912 160.419,99.041 160.559,99.157C160.699,99.273 161.094,99.412 161.438,99.466C161.781,99.52 162.111,99.643 162.171,99.74C162.348,100.025 163.442,100.087 163.661,99.823C163.8,99.655 163.846,88.383 163.813,62.516L163.765,25.449L163.14,25.389C162.795,25.356 162.467,25.207 162.41,25.058C162.348,24.896 162.046,24.787 161.658,24.787C161.256,24.787 160.968,24.679 160.901,24.503C160.83,24.318 160.535,24.219 160.05,24.219C159.564,24.219 159.269,24.121 159.198,23.936C159.124,23.743 158.822,23.652 158.258,23.652C157.645,23.652 157.427,23.577 157.427,23.368C157.427,23.165 157.219,23.084 156.693,23.084C156.272,23.084 155.859,22.963 155.724,22.8C155.591,22.64 155.178,22.517 154.775,22.517C154.315,22.517 154.023,22.416 153.952,22.233C153.88,22.045 153.584,21.949 153.081,21.949C152.529,21.949 152.318,21.87 152.318,21.665C152.318,21.455 152.097,21.381 151.466,21.381C150.836,21.381 150.615,21.308 150.615,21.097C150.615,20.887 150.394,20.814 149.763,20.814C149.133,20.814 148.912,20.74 148.912,20.53C148.912,20.34 148.722,20.246 148.338,20.246C148.023,20.246 147.722,20.135 147.671,20C147.619,19.865 147.26,19.735 146.872,19.711C146.485,19.687 146.083,19.554 145.979,19.417C145.76,19.128 145.7,19.111 144.939,19.111C144.56,19.111 144.371,19.016 144.371,18.827C144.371,18.617 144.15,18.543 143.519,18.543C142.889,18.543 142.668,18.469 142.668,18.259C142.668,18.049 142.447,17.975 141.816,17.975C141.186,17.975 140.965,17.902 140.965,17.692C140.965,17.482 140.746,17.408 140.134,17.408C139.569,17.408 139.268,17.317 139.194,17.124C139.122,16.938 138.828,16.84 138.342,16.84C137.857,16.84 137.562,16.742 137.491,16.556C137.419,16.371 137.125,16.272 136.639,16.272C136.154,16.272 135.859,16.174 135.788,15.989C135.716,15.801 135.42,15.705 134.916,15.705C134.364,15.705 134.153,15.626 134.153,15.421C134.153,15.211 133.933,15.137 133.302,15.137C132.671,15.137 132.45,15.064 132.45,14.853C132.45,14.666 132.263,14.57 131.903,14.57C131.589,14.57 131.309,14.448 131.246,14.284C131.186,14.127 131.07,14.009 130.989,14.023C130.379,14.123 129.43,13.967 129.47,13.774C129.521,13.529 129.402,13.494 128.382,13.458C127.988,13.444 127.739,13.345 127.767,13.215C127.795,13.086 127.502,12.964 127.058,12.919C126.641,12.877 126.206,12.72 126.091,12.571C125.975,12.421 125.568,12.299 125.186,12.299C124.743,12.299 124.452,12.196 124.383,12.015C124.311,11.83 124.017,11.731 123.531,11.731C123.046,11.731 122.751,11.633 122.68,11.447C122.609,11.262 122.314,11.164 121.834,11.164C121.305,11.164 121.097,11.084 121.097,10.88C121.097,10.67 120.877,10.596 120.246,10.596C119.615,10.596 119.395,10.522 119.395,10.312C119.395,10.103 119.176,10.028 118.563,10.028C117.999,10.028 117.697,9.937 117.623,9.745C117.551,9.557 117.255,9.461 116.751,9.461C116.2,9.461 115.989,9.382 115.989,9.177C115.989,8.967 115.768,8.893 115.137,8.893C114.506,8.893 114.286,8.82 114.286,8.609C114.286,8.411 114.086,8.325 113.623,8.325C113.161,8.325 112.961,8.24 112.961,8.042C112.961,7.886 112.897,7.768 112.819,7.78C112.191,7.879 111.258,7.72 111.258,7.513C111.258,7.363 110.981,7.25 110.549,7.223C110.158,7.198 109.745,7.053 109.629,6.9C109.511,6.745 109.114,6.623 108.724,6.623C108.281,6.623 107.99,6.52 107.921,6.339C107.847,6.146 107.545,6.055 106.981,6.055C106.368,6.055 106.149,5.98 106.149,5.771C106.149,5.561 105.929,5.487 105.298,5.487C104.667,5.487 104.447,5.414 104.447,5.203C104.447,4.993 104.226,4.92 103.595,4.92C102.964,4.92 102.744,4.846 102.744,4.636C102.744,4.426 102.523,4.352 101.892,4.352C101.261,4.352 101.041,4.278 101.041,4.068C101.041,3.777 99.915,3.649 99.653,3.91M32.356,66.593L31.693,66.698L31.647,96.155C31.603,123.783 31.628,126.22 31.948,126.178C32.676,126.081 33.491,126.246 33.491,126.49C33.491,126.646 33.555,126.764 33.633,126.751C34.33,126.641 35.194,126.811 35.194,127.058C35.194,127.214 35.258,127.331 35.336,127.319C35.859,127.237 36.901,127.372 36.815,127.511C36.682,127.726 37.152,127.909 37.835,127.909C38.126,127.909 38.47,128.037 38.6,128.193C38.729,128.349 39.113,128.477 39.451,128.477C39.79,128.477 40.173,128.605 40.303,128.761C40.432,128.917 40.829,129.044 41.183,129.044C41.582,129.044 41.87,129.153 41.937,129.328C42.008,129.514 42.303,129.612 42.789,129.612C43.274,129.612 43.569,129.71 43.64,129.896C43.714,130.089 44.016,130.18 44.58,130.18C45.193,130.18 45.412,130.254 45.412,130.464C45.412,130.674 45.632,130.747 46.263,130.747C46.894,130.747 47.114,130.821 47.114,131.031C47.114,131.241 47.335,131.315 47.966,131.315C48.597,131.315 48.817,131.389 48.817,131.599C48.817,131.809 49.038,131.883 49.669,131.883C50.3,131.883 50.52,131.956 50.52,132.167C50.52,132.377 50.741,132.45 51.372,132.45C52.003,132.45 52.223,132.524 52.223,132.734C52.223,132.913 52.403,133.018 52.71,133.018C52.977,133.018 53.324,133.146 53.48,133.302C53.636,133.458 54.046,133.586 54.39,133.586C54.734,133.586 55.121,133.713 55.251,133.869C55.38,134.026 55.763,134.153 56.102,134.153C56.441,134.153 56.824,134.281 56.954,134.437C57.083,134.593 57.466,134.721 57.805,134.721C58.144,134.721 58.527,134.849 58.657,135.005C58.786,135.161 59.18,135.289 59.531,135.289C59.973,135.289 60.17,135.376 60.17,135.572C60.17,135.783 60.391,135.856 61.022,135.856C61.652,135.856 61.873,135.93 61.873,136.14C61.873,136.35 62.094,136.424 62.725,136.424C63.355,136.424 63.576,136.497 63.576,136.708C63.576,136.917 63.795,136.991 64.407,136.991C64.972,136.991 65.274,137.083 65.348,137.275C65.419,137.461 65.713,137.559 66.199,137.559C66.684,137.559 66.979,137.657 67.05,137.843C67.122,138.029 67.416,138.127 67.902,138.127C68.387,138.127 68.682,138.225 68.753,138.411C68.825,138.596 69.119,138.694 69.605,138.694C70.09,138.694 70.385,138.793 70.456,138.978C70.528,139.166 70.825,139.262 71.328,139.262C71.88,139.262 72.091,139.341 72.091,139.546C72.091,139.756 72.312,139.83 72.942,139.83C73.573,139.83 73.794,139.903 73.794,140.114C73.794,140.324 74.015,140.397 74.645,140.397C75.276,140.397 75.497,140.471 75.497,140.681C75.497,140.88 75.698,140.965 76.17,140.965C76.54,140.965 76.796,141.041 76.739,141.134C76.606,141.349 77.076,141.533 77.76,141.533C78.051,141.533 78.395,141.66 78.524,141.816C78.657,141.977 79.07,142.1 79.473,142.1C79.933,142.1 80.225,142.201 80.295,142.384C80.367,142.57 80.661,142.668 81.147,142.668C81.632,142.668 81.927,142.766 81.998,142.952C82.058,143.108 82.304,143.236 82.544,143.236C82.784,143.236 83.151,143.355 83.359,143.5C83.744,143.77 84.263,143.862 85.195,143.824L85.715,143.803L85.668,114.257L85.62,84.711L85.179,84.644C84.937,84.607 84.612,84.45 84.456,84.294C84.301,84.139 83.918,84.011 83.606,84.011C83.294,84.011 82.911,83.884 82.754,83.728C82.598,83.571 82.264,83.444 82.011,83.444C81.758,83.444 81.552,83.362 81.552,83.263C81.552,83.164 81.24,83.024 80.86,82.953C80.479,82.881 79.947,82.708 79.677,82.567C79.407,82.426 79.047,82.31 78.877,82.31C78.707,82.309 78.323,82.181 78.025,82.026C77.727,81.87 77.301,81.743 77.078,81.742C76.855,81.741 76.63,81.631 76.579,81.497C76.528,81.363 76.158,81.231 75.757,81.204C75.356,81.177 74.969,81.049 74.897,80.92C74.825,80.79 74.441,80.663 74.046,80.636C73.65,80.609 73.266,80.482 73.194,80.352C73.122,80.223 72.738,80.095 72.343,80.068C71.947,80.042 71.564,79.914 71.491,79.785C71.419,79.655 71.034,79.529 70.637,79.504C70.24,79.479 69.82,79.333 69.705,79.181C69.587,79.025 69.19,78.903 68.8,78.903C68.357,78.903 68.066,78.8 67.997,78.619C67.929,78.442 67.64,78.335 67.232,78.335C66.872,78.335 66.449,78.207 66.293,78.051C66.137,77.895 65.727,77.767 65.383,77.767C65.039,77.767 64.652,77.64 64.522,77.483C64.393,77.327 63.996,77.2 63.642,77.2C63.243,77.2 62.955,77.091 62.888,76.916C62.817,76.73 62.522,76.632 62.036,76.632C61.551,76.632 61.256,76.534 61.185,76.348C61.115,76.165 60.822,76.064 60.36,76.064C59.897,76.064 59.604,75.964 59.534,75.781C59.47,75.614 59.186,75.497 58.846,75.497C58.527,75.497 58.224,75.386 58.172,75.251C58.12,75.116 57.761,74.986 57.374,74.961C56.987,74.937 56.585,74.812 56.481,74.684C56.377,74.556 55.993,74.425 55.629,74.393C55.265,74.361 54.882,74.233 54.778,74.109C54.674,73.985 54.29,73.857 53.926,73.825C53.562,73.793 53.179,73.658 53.075,73.525C52.855,73.244 52.792,73.226 52.034,73.226C51.656,73.226 51.466,73.132 51.466,72.942C51.466,72.786 51.403,72.669 51.325,72.681C50.627,72.791 49.763,72.621 49.763,72.375C49.763,72.219 49.7,72.101 49.622,72.113C48.925,72.223 48.061,72.054 48.061,71.807C48.061,71.651 47.997,71.533 47.919,71.546C47.222,71.656 46.358,71.486 46.358,71.239C46.358,71.029 46.137,70.956 45.506,70.956C44.875,70.956 44.655,70.882 44.655,70.672C44.655,70.461 44.434,70.388 43.803,70.388C43.173,70.388 42.952,70.314 42.952,70.104C42.952,69.895 42.733,69.82 42.121,69.82C41.556,69.82 41.254,69.729 41.18,69.536C41.109,69.349 40.812,69.253 40.309,69.253C39.757,69.253 39.546,69.174 39.546,68.969C39.546,68.759 39.325,68.685 38.694,68.685C38.064,68.685 37.843,68.611 37.843,68.401C37.843,68.191 37.622,68.117 36.991,68.117C36.361,68.117 36.14,68.044 36.14,67.833C36.14,67.635 35.94,67.55 35.478,67.55C35.061,67.55 34.833,67.465 34.863,67.322C34.914,67.076 34.795,67.042 33.764,67.006C33.393,66.993 33.139,66.903 33.199,66.806C33.362,66.543 33.095,66.475 32.356,66.593M351.841,91.202C351.841,100.203 351.864,103.886 351.892,99.385C351.92,94.884 351.92,87.519 351.892,83.018C351.864,78.517 351.841,82.2 351.841,91.202M197.973,98.108C197.974,98.628 198.011,98.819 198.054,98.531C198.098,98.243 198.097,97.818 198.052,97.585C198.007,97.352 197.971,97.588 197.973,98.108" style="fill:rgb(124,212,244);"/>
        <path id="path2" d="M51.656,23.652C51.656,32.103 51.691,33.302 51.939,33.302C52.096,33.302 52.223,33.43 52.223,33.586C52.223,33.783 52.422,33.869 52.88,33.869C53.393,33.869 53.512,33.933 53.424,34.161C53.362,34.321 53.386,34.439 53.477,34.422C54.155,34.299 55.061,34.47 55.061,34.721C55.061,34.877 55.125,34.995 55.203,34.982C55.972,34.861 56.765,35.04 56.767,35.336C56.77,35.619 56.797,35.626 56.954,35.383C57.076,35.194 57.138,35.178 57.14,35.336C57.142,35.478 57.399,35.572 57.785,35.572C58.181,35.572 58.469,35.681 58.536,35.856C58.607,36.042 58.902,36.14 59.387,36.14C59.873,36.14 60.168,36.238 60.239,36.424C60.311,36.611 60.607,36.708 61.11,36.708C61.662,36.708 61.873,36.786 61.873,36.991C61.873,37.202 62.094,37.275 62.725,37.275C63.355,37.275 63.576,37.349 63.576,37.559C63.576,37.769 63.797,37.843 64.428,37.843C65.058,37.843 65.279,37.917 65.279,38.127C65.279,38.337 65.5,38.411 66.131,38.411C66.761,38.411 66.982,38.484 66.982,38.694C66.982,38.905 67.203,38.978 67.833,38.978C68.448,38.978 68.685,39.054 68.685,39.25C68.685,39.418 68.919,39.544 69.3,39.581C69.638,39.614 69.891,39.726 69.863,39.83C69.834,39.934 70.198,40.061 70.672,40.114C71.145,40.166 71.528,40.293 71.523,40.397C71.518,40.501 71.92,40.629 72.417,40.681C73.002,40.742 73.304,40.859 73.273,41.012C73.241,41.174 73.499,41.249 74.084,41.249C74.671,41.249 74.975,41.338 75.05,41.533C75.12,41.716 75.413,41.816 75.875,41.816C76.337,41.816 76.63,41.917 76.7,42.1C76.772,42.288 77.069,42.384 77.572,42.384C78.124,42.384 78.335,42.463 78.335,42.668C78.335,42.878 78.556,42.952 79.186,42.952C79.817,42.952 80.038,43.025 80.038,43.236C80.038,43.45 80.269,43.519 80.984,43.519C81.64,43.519 81.915,43.592 81.883,43.756C81.853,43.907 82.144,44.027 82.687,44.087C83.23,44.147 83.521,44.267 83.491,44.418C83.459,44.579 83.711,44.655 84.275,44.655C84.839,44.655 85.141,44.746 85.215,44.939C85.287,45.126 85.583,45.222 86.087,45.222C86.639,45.222 86.85,45.301 86.85,45.506C86.85,45.693 87.037,45.79 87.397,45.79C87.709,45.79 87.991,45.912 88.053,46.074C88.124,46.259 88.419,46.358 88.905,46.358C89.39,46.358 89.685,46.456 89.756,46.641C89.831,46.836 90.134,46.925 90.717,46.925C91.396,46.925 91.546,46.983 91.459,47.209C91.362,47.461 92.348,47.641 93.141,47.515C93.219,47.503 93.262,47.59 93.236,47.709C93.21,47.829 93.486,48.003 93.851,48.098C94.215,48.192 94.796,48.4 95.143,48.56C95.49,48.719 95.824,48.8 95.885,48.738C95.946,48.677 96.213,48.769 96.477,48.942C96.741,49.115 97.257,49.29 97.622,49.33C97.987,49.37 98.349,49.506 98.427,49.631C98.504,49.756 98.805,49.87 99.095,49.884C100.039,49.931 100.095,49.95 100.095,50.215C100.095,50.403 100.333,50.468 100.946,50.448C101.657,50.424 101.798,50.477 101.798,50.767C101.798,51.012 101.924,51.105 102.223,51.081C103.075,51.012 103.5,51.093 103.501,51.325C103.501,51.46 103.761,51.57 104.107,51.583C104.441,51.595 104.746,51.702 104.785,51.821C104.825,51.939 104.935,51.988 105.03,51.929C105.126,51.871 105.203,51.918 105.203,52.034C105.203,52.15 105.279,52.199 105.37,52.142C105.462,52.086 105.994,52.196 106.553,52.389C107.75,52.8 107.736,52.796 108.224,52.924C108.434,52.978 108.569,53.081 108.526,53.152C108.482,53.222 108.717,53.3 109.048,53.323C109.379,53.347 109.735,53.475 109.839,53.607C109.943,53.738 110.323,53.867 110.683,53.892C111.043,53.918 111.402,54.042 111.48,54.169C111.632,54.415 111.701,54.433 112.583,54.47C112.912,54.484 113.15,54.598 113.15,54.741C113.15,54.877 113.342,54.992 113.576,54.998C114.663,55.023 114.853,55.077 114.853,55.356C114.853,55.519 114.917,55.613 114.995,55.566C115.281,55.394 116.651,55.749 116.601,55.981C116.573,56.11 116.658,56.201 116.79,56.183C117.57,56.081 118.259,56.221 118.259,56.481C118.259,56.691 118.48,56.764 119.111,56.764C119.741,56.764 119.962,56.838 119.962,57.048C119.962,57.237 120.151,57.332 120.53,57.332C120.842,57.332 121.097,57.415 121.097,57.515C121.097,57.616 121.224,57.65 121.38,57.59C121.629,57.495 121.662,62.069 121.664,97.067C121.666,118.839 121.714,136.728 121.772,136.822C121.829,136.915 122.215,136.991 122.628,136.991C123.122,136.991 123.417,137.089 123.489,137.275C123.56,137.461 123.855,137.559 124.34,137.559C124.826,137.559 125.121,137.657 125.192,137.843C125.262,138.026 125.555,138.127 126.017,138.127C126.466,138.127 126.772,138.228 126.838,138.399C126.901,138.563 127.266,138.695 127.757,138.73C128.284,138.768 128.555,138.872 128.524,139.026C128.492,139.187 128.748,139.262 129.328,139.262C129.959,139.262 130.18,139.336 130.18,139.546C130.18,139.755 130.398,139.83 131.011,139.83C131.56,139.83 131.878,139.922 131.947,140.102C132.01,140.266 132.375,140.398 132.866,140.433C133.393,140.471 133.664,140.575 133.633,140.728C133.601,140.889 133.853,140.965 134.417,140.965C134.981,140.965 135.283,141.056 135.357,141.249C135.429,141.436 135.725,141.533 136.229,141.533C136.747,141.533 136.991,141.615 136.991,141.791C136.991,142.074 138.482,142.359 138.974,142.17C139.231,142.072 139.262,136.757 139.257,92.837L139.252,43.614L138.533,43.283C138.137,43.101 137.586,42.952 137.308,42.952C137.018,42.952 136.822,42.856 136.85,42.727C136.878,42.592 136.598,42.477 136.144,42.437C135.73,42.401 135.321,42.246 135.236,42.094C135.141,41.925 134.795,41.816 134.349,41.816C133.935,41.816 133.583,41.715 133.539,41.582C133.496,41.453 133.136,41.335 132.739,41.32C132.294,41.302 131.951,41.174 131.845,40.986C131.735,40.788 131.42,40.681 130.947,40.681C130.466,40.681 130.182,40.582 130.108,40.388C130.046,40.227 129.888,40.11 129.757,40.127C129.096,40.214 128.477,40.088 128.477,39.867C128.477,39.711 128.186,39.603 127.686,39.573C126.818,39.522 126.529,39.41 126.672,39.179C126.723,39.096 126.618,39.029 126.438,39.029C125.376,39.032 125.071,38.958 125.071,38.694C125.071,38.538 125.007,38.421 124.929,38.433C124.312,38.53 123.495,38.384 123.746,38.221C123.999,38.058 123.999,38.035 123.746,38.013C123.59,38 123.377,37.969 123.273,37.945C123.169,37.92 122.786,37.886 122.422,37.869C121.962,37.847 121.84,37.786 122.021,37.672C122.281,37.507 121.771,37.216 121.354,37.291C120.833,37.384 120.082,37.254 120.309,37.11C120.634,36.904 120.177,36.708 119.373,36.708C119.066,36.708 118.771,36.594 118.718,36.454C118.664,36.313 118.31,36.189 117.92,36.174C117.535,36.16 117.129,36.025 117.02,35.875C116.91,35.725 116.697,35.609 116.546,35.617C115.77,35.66 115.237,35.549 115.279,35.353C115.308,35.221 115.004,35.109 114.511,35.072C114.063,35.037 113.567,34.881 113.409,34.723C113.252,34.566 112.895,34.434 112.617,34.431C112.338,34.428 111.944,34.3 111.742,34.147C111.54,33.994 111.088,33.869 110.738,33.869C110.387,33.869 110.147,33.794 110.204,33.702C110.325,33.507 109.691,33.308 108.94,33.304C108.626,33.303 108.439,33.208 108.467,33.065C108.498,32.913 108.233,32.808 107.725,32.771C107.291,32.74 106.834,32.591 106.709,32.44C106.584,32.29 106.23,32.167 105.924,32.167C105.617,32.167 105.238,32.039 105.082,31.883C104.926,31.727 104.539,31.599 104.224,31.599C103.8,31.599 103.677,31.527 103.754,31.325C103.835,31.114 103.654,31.038 102.97,30.994C102.383,30.956 102.097,30.856 102.129,30.7C102.161,30.539 101.905,30.464 101.325,30.464C100.683,30.464 100.473,30.392 100.473,30.171C100.473,30.011 100.367,29.893 100.237,29.91C99.457,30.011 98.77,29.872 98.77,29.612C98.77,29.456 98.706,29.338 98.628,29.351C97.931,29.461 97.067,29.291 97.067,29.044C97.067,28.834 96.846,28.761 96.216,28.761C95.585,28.761 95.364,28.687 95.364,28.477C95.364,28.268 95.146,28.193 94.533,28.193C93.969,28.193 93.667,28.102 93.593,27.909C93.522,27.724 93.227,27.625 92.741,27.625C92.256,27.625 91.961,27.527 91.89,27.342C91.821,27.162 91.531,27.058 91.099,27.058C90.724,27.058 90.29,26.93 90.134,26.774C89.978,26.618 89.558,26.49 89.201,26.49C88.751,26.49 88.553,26.403 88.553,26.206C88.553,25.996 88.332,25.922 87.701,25.922C87.07,25.922 86.85,25.849 86.85,25.639C86.85,25.449 86.66,25.355 86.276,25.355C85.941,25.355 85.657,25.237 85.593,25.071C85.522,24.885 85.228,24.787 84.742,24.787C84.257,24.787 83.962,24.689 83.891,24.503C83.82,24.319 83.526,24.219 83.054,24.219C82.622,24.219 82.266,24.11 82.176,23.95C82.093,23.801 81.684,23.652 81.268,23.619C80.787,23.58 80.528,23.471 80.558,23.321C80.59,23.16 80.334,23.084 79.754,23.084C79.123,23.084 78.903,23.011 78.903,22.8C78.903,22.59 78.682,22.517 78.051,22.517C77.42,22.517 77.2,22.443 77.2,22.233C77.2,22.024 76.981,21.949 76.368,21.949C75.804,21.949 75.502,21.858 75.428,21.665C75.356,21.478 75.06,21.381 74.557,21.381C74.005,21.381 73.794,21.303 73.794,21.097C73.794,20.887 73.573,20.814 72.942,20.814C72.312,20.814 72.091,20.74 72.091,20.53C72.091,20.32 71.87,20.246 71.239,20.246C70.609,20.246 70.388,20.172 70.388,19.962C70.388,19.752 70.167,19.678 69.536,19.678C68.906,19.678 68.685,19.605 68.685,19.395C68.685,19.185 68.466,19.111 67.854,19.111C67.289,19.111 66.988,19.02 66.914,18.827C66.85,18.661 66.566,18.543 66.231,18.543C65.895,18.543 65.677,18.452 65.705,18.323C65.732,18.196 65.439,18.07 65.004,18.023C64.593,17.979 64.139,17.801 63.997,17.628C63.815,17.407 63.778,17.398 63.874,17.597C63.984,17.827 63.962,17.836 63.755,17.644C63.615,17.514 63.271,17.408 62.991,17.408C62.711,17.408 62.439,17.298 62.388,17.164C62.336,17.03 61.967,16.898 61.566,16.871C61.165,16.844 60.768,16.699 60.684,16.547C60.585,16.371 60.227,16.272 59.688,16.272C59.115,16.272 58.861,16.197 58.893,16.036C58.923,15.886 58.664,15.777 58.184,15.738C57.767,15.704 57.359,15.555 57.275,15.407C57.18,15.236 56.814,15.137 56.282,15.137C55.709,15.137 55.455,15.062 55.487,14.901C55.517,14.751 55.258,14.642 54.778,14.603C54.361,14.569 53.953,14.42 53.87,14.272C53.767,14.09 53.383,14.002 52.687,14.002L51.656,14.002L51.656,23.652" style="fill:rgb(52,196,244);"/>
        <path id="path3" d="M3.784,86.104C3.784,127.658 3.847,147.95 3.975,147.87C4.08,147.805 4.239,147.949 4.328,148.19C4.417,148.431 4.544,148.607 4.61,148.581C5.061,148.404 6.055,148.566 6.055,148.817C6.055,149.028 6.276,149.101 6.906,149.101C7.537,149.101 7.758,149.175 7.758,149.385C7.758,149.595 7.979,149.669 8.609,149.669C9.24,149.669 9.461,149.742 9.461,149.953C9.461,150.162 9.679,150.237 10.292,150.237C10.856,150.237 11.158,150.328 11.232,150.52C11.301,150.7 11.591,150.804 12.023,150.804C12.398,150.804 12.832,150.932 12.988,151.088C13.144,151.244 13.528,151.372 13.84,151.372C14.152,151.372 14.535,151.5 14.691,151.656C14.847,151.812 15.267,151.939 15.624,151.939C16.074,151.939 16.272,152.026 16.272,152.223C16.272,152.413 16.462,152.507 16.846,152.507C17.162,152.507 17.462,152.618 17.514,152.753C17.566,152.888 17.925,153.018 18.312,153.042C18.699,153.067 19.101,153.191 19.205,153.32C19.309,153.448 19.693,153.579 20.057,153.611C20.421,153.643 20.818,153.796 20.938,153.952C21.059,154.108 21.208,154.23 21.269,154.223C22.125,154.126 22.682,154.241 22.585,154.494C22.498,154.721 22.651,154.778 23.348,154.778C23.996,154.778 24.219,154.85 24.219,155.061C24.219,155.272 24.44,155.345 25.071,155.345C25.702,155.345 25.922,155.419 25.922,155.629C25.922,155.839 26.143,155.913 26.774,155.913C27.405,155.913 27.625,155.987 27.625,156.197C27.625,156.407 27.846,156.481 28.477,156.481C29.108,156.481 29.328,156.554 29.328,156.764C29.328,156.975 29.549,157.048 30.18,157.048C30.81,157.048 31.031,157.122 31.031,157.332C31.031,157.542 31.252,157.616 31.883,157.616C32.513,157.616 32.734,157.689 32.734,157.9C32.734,158.109 32.953,158.184 33.565,158.184C34.13,158.184 34.432,158.275 34.506,158.467C34.578,158.655 34.874,158.751 35.383,158.751C35.892,158.751 36.189,158.847 36.261,159.035C36.332,159.22 36.626,159.319 37.106,159.319C37.635,159.319 37.843,159.399 37.843,159.603C37.843,159.817 38.074,159.886 38.783,159.886C39.541,159.886 39.702,159.941 39.614,160.17C39.532,160.384 39.646,160.454 40.07,160.454C40.381,160.454 40.741,160.582 40.87,160.738C41,160.894 41.383,161.022 41.722,161.022C42.061,161.022 42.444,161.149 42.573,161.306C42.703,161.462 43.086,161.589 43.425,161.589C43.764,161.589 44.147,161.717 44.276,161.873C44.412,162.036 44.824,162.157 45.245,162.157C45.772,162.157 45.979,162.237 45.979,162.441C45.979,162.651 46.2,162.725 46.831,162.725C47.461,162.725 47.682,162.798 47.682,163.009C47.682,163.165 47.746,163.282 47.824,163.27C48.521,163.16 49.385,163.329 49.385,163.576C49.385,163.732 49.449,163.85 49.527,163.838C50.224,163.728 51.088,163.897 51.088,164.144C51.088,164.3 51.152,164.418 51.23,164.405C51.927,164.295 52.791,164.465 52.791,164.711C52.791,164.922 53.012,164.995 53.642,164.995C54.273,164.995 54.494,165.069 54.494,165.279C54.494,165.489 54.715,165.563 55.345,165.563C55.976,165.563 56.197,165.636 56.197,165.847C56.197,166.056 56.415,166.131 57.028,166.131C57.592,166.131 57.894,166.222 57.968,166.414C58.04,166.602 58.336,166.698 58.84,166.698C59.392,166.698 59.603,166.777 59.603,166.982C59.603,167.192 59.823,167.266 60.454,167.266C61.085,167.266 61.306,167.339 61.306,167.55C61.306,167.76 61.526,167.833 62.157,167.833C62.788,167.833 63.009,167.907 63.009,168.117C63.009,168.315 63.208,168.401 63.665,168.401C64.17,168.401 64.296,168.466 64.212,168.685C64.124,168.914 64.288,168.969 65.064,168.969C65.84,168.969 66.003,169.023 65.915,169.253C65.828,169.48 65.981,169.536 66.678,169.536C67.327,169.536 67.55,169.609 67.55,169.82C67.55,170.03 67.77,170.104 68.401,170.104C69.032,170.104 69.253,170.178 69.253,170.388C69.253,170.597 69.471,170.672 70.081,170.672C70.586,170.672 71.001,170.782 71.145,170.956C71.274,171.112 71.671,171.239 72.025,171.239C72.424,171.239 72.712,171.348 72.779,171.523C72.847,171.7 73.136,171.807 73.544,171.807C73.904,171.807 74.327,171.935 74.483,172.091C74.639,172.247 75.059,172.375 75.416,172.375C75.866,172.375 76.064,172.461 76.064,172.658C76.064,172.869 76.285,172.942 76.916,172.942C77.547,172.942 77.767,173.016 77.767,173.226C77.767,173.436 77.988,173.51 78.619,173.51C79.249,173.51 79.47,173.584 79.47,173.794C79.47,174.004 79.692,174.078 80.328,174.078C80.915,174.078 81.219,174.167 81.294,174.361C81.365,174.546 81.659,174.645 82.139,174.645C82.668,174.645 82.876,174.725 82.876,174.929C82.876,175.139 83.097,175.213 83.728,175.213C84.358,175.213 84.579,175.286 84.579,175.497C84.579,175.707 84.8,175.781 85.43,175.781C86.047,175.781 86.282,175.856 86.282,176.054C86.282,176.246 86.55,176.345 87.181,176.385C87.776,176.423 88.063,176.523 88.032,176.679C88.002,176.832 88.218,176.916 88.647,176.916C89.076,176.916 89.293,176.999 89.262,177.152C89.231,177.305 89.534,177.422 90.118,177.483C90.615,177.535 91.018,177.663 91.013,177.767C91.008,177.871 91.325,177.984 91.718,178.018C92.11,178.052 92.5,178.201 92.583,178.349C92.679,178.52 93.046,178.619 93.587,178.619C94.057,178.619 94.393,178.695 94.336,178.788C94.207,178.996 94.667,179.186 95.299,179.186C95.558,179.186 95.897,179.314 96.054,179.47C96.21,179.626 96.672,179.754 97.081,179.754C97.615,179.754 97.824,179.834 97.824,180.038C97.824,180.248 98.045,180.322 98.675,180.322C99.306,180.322 99.527,180.395 99.527,180.605C99.527,180.816 99.748,180.889 100.378,180.889C101.009,180.889 101.23,180.963 101.23,181.173C101.23,181.383 101.451,181.457 102.081,181.457C102.712,181.457 102.933,181.531 102.933,181.741C102.933,181.951 103.154,182.025 103.784,182.025C104.415,182.025 104.636,182.098 104.636,182.308C104.636,182.519 104.857,182.592 105.487,182.592C106.118,182.592 106.339,182.666 106.339,182.876C106.339,183.086 106.559,183.16 107.19,183.16C107.821,183.16 108.042,183.233 108.042,183.444C108.042,183.654 108.262,183.728 108.893,183.728C109.524,183.728 109.745,183.801 109.745,184.011C109.745,184.222 109.965,184.295 110.596,184.295C111.227,184.295 111.447,184.369 111.447,184.579C111.447,184.766 111.634,184.863 111.995,184.863C112.296,184.863 112.586,184.976 112.638,185.114C112.699,185.272 113.122,185.38 113.794,185.407L114.853,185.45L114.853,123.662C114.853,61.999 114.853,61.873 114.475,61.873C114.265,61.873 114.096,61.747 114.096,61.589C114.096,61.379 113.876,61.306 113.245,61.306C112.665,61.306 112.409,61.23 112.441,61.069C112.471,60.916 112.169,60.799 111.585,60.738C111.088,60.686 110.685,60.558 110.689,60.454C110.694,60.35 110.362,60.239 109.952,60.207C109.542,60.176 109.104,60.027 108.979,59.876C108.854,59.726 108.475,59.603 108.136,59.603C107.797,59.603 107.414,59.475 107.285,59.319C107.149,59.156 106.737,59.035 106.316,59.035C105.829,59.035 105.598,58.955 105.629,58.798C105.66,58.646 105.342,58.522 104.73,58.45C104.21,58.388 103.869,58.323 103.974,58.305C104.379,58.235 103.561,57.905 102.974,57.903C102.599,57.901 102.31,57.787 102.244,57.616C102.17,57.423 101.869,57.332 101.304,57.332C100.692,57.332 100.473,57.257 100.473,57.048C100.473,56.838 100.252,56.764 99.622,56.764C98.991,56.764 98.77,56.691 98.77,56.481C98.77,56.27 98.549,56.197 97.919,56.197C97.288,56.197 97.067,56.123 97.067,55.913C97.067,55.703 96.846,55.629 96.216,55.629C95.585,55.629 95.364,55.556 95.364,55.345C95.364,55.147 95.165,55.061 94.702,55.061C94.273,55.061 94.056,54.978 94.087,54.825C94.117,54.675 93.858,54.566 93.377,54.527C92.961,54.493 92.553,54.344 92.469,54.196C92.379,54.035 92.023,53.926 91.591,53.926C91.119,53.926 90.825,53.827 90.755,53.642C90.683,53.455 90.386,53.359 89.883,53.359C89.331,53.359 89.12,53.28 89.12,53.075C89.12,52.865 88.899,52.791 88.269,52.791C87.638,52.791 87.417,52.717 87.417,52.507C87.417,52.298 87.199,52.223 86.586,52.223C86.022,52.223 85.72,52.132 85.646,51.939C85.575,51.754 85.28,51.656 84.794,51.656C84.309,51.656 84.014,51.557 83.943,51.372C83.872,51.186 83.577,51.088 83.091,51.088C82.606,51.088 82.311,50.99 82.24,50.804C82.168,50.617 81.872,50.52 81.368,50.52C80.816,50.52 80.605,50.442 80.605,50.237C80.605,50.026 80.385,49.953 79.754,49.953C79.123,49.953 78.903,49.879 78.903,49.669C78.903,49.459 78.682,49.385 78.051,49.385C77.42,49.385 77.2,49.311 77.2,49.101C77.2,48.914 77.013,48.817 76.652,48.817C76.34,48.817 76.058,48.695 75.996,48.534C75.925,48.348 75.63,48.25 75.144,48.25C74.659,48.25 74.364,48.152 74.293,47.966C74.221,47.779 73.925,47.682 73.421,47.682C72.869,47.682 72.658,47.604 72.658,47.398C72.658,47.201 72.46,47.114 72.01,47.114C71.653,47.114 71.229,46.982 71.067,46.82C70.905,46.658 70.494,46.506 70.154,46.482C69.814,46.459 69.306,46.286 69.024,46.098C68.743,45.911 68.42,45.815 68.307,45.885C68.193,45.955 67.87,45.86 67.589,45.674C67.307,45.489 66.779,45.321 66.414,45.301C66.04,45.281 65.773,45.174 65.799,45.055C65.825,44.939 65.762,44.833 65.658,44.82C65.553,44.807 65.383,44.775 65.279,44.749C65.175,44.723 64.834,44.691 64.522,44.678C64.21,44.665 63.976,44.56 64.002,44.445C64.028,44.329 63.714,44.2 63.292,44.155C62.876,44.11 62.45,43.969 62.346,43.841C62.242,43.713 61.866,43.581 61.511,43.546C61.156,43.512 60.745,43.365 60.599,43.218C60.452,43.072 59.993,42.952 59.578,42.952C59.163,42.952 58.871,42.876 58.928,42.782C59.069,42.554 58.579,42.384 57.778,42.384C57.417,42.384 57.168,42.308 57.225,42.215C57.343,42.024 56.908,41.816 56.391,41.816C56.202,41.816 56.002,41.697 55.946,41.552C55.885,41.391 55.57,41.287 55.145,41.287C54.76,41.287 54.378,41.178 54.295,41.044C54.213,40.911 53.825,40.775 53.433,40.743C53.041,40.711 52.655,40.578 52.574,40.447C52.417,40.193 52.35,40.174 51.466,40.137C51.123,40.123 50.899,40.011 50.899,39.854C50.899,39.712 50.75,39.596 50.568,39.596C49.572,39.6 49.196,39.522 49.196,39.309C49.196,39.165 48.886,39.055 48.4,39.027C47.927,38.999 47.539,38.865 47.444,38.696C47.345,38.519 47.009,38.411 46.558,38.411C46.139,38.411 45.791,38.307 45.737,38.167C45.686,38.033 45.317,37.901 44.918,37.874C44.519,37.847 44.13,37.723 44.052,37.598C43.902,37.355 43.832,37.336 42.952,37.299C42.584,37.284 42.384,37.175 42.384,36.991C42.384,36.781 42.163,36.708 41.533,36.708C40.902,36.708 40.681,36.634 40.681,36.424C40.681,36.214 40.46,36.14 39.83,36.14C39.199,36.14 38.978,36.066 38.978,35.856C38.978,35.669 38.791,35.572 38.426,35.572C38.123,35.572 37.842,35.475 37.802,35.355C37.762,35.236 37.396,35.104 36.987,35.062C36.579,35.02 36.187,34.891 36.115,34.776C36.044,34.66 35.661,34.533 35.264,34.492C34.867,34.451 34.495,34.341 34.437,34.247C34.379,34.153 33.972,34.019 33.533,33.949C33.044,33.871 32.734,33.72 32.734,33.561C32.734,33.38 32.478,33.302 31.883,33.302C31.252,33.302 31.031,33.228 31.031,33.018C31.031,32.808 30.81,32.734 30.18,32.734C29.549,32.734 29.328,32.661 29.328,32.45C29.328,32.241 29.11,32.167 28.497,32.167C27.994,32.167 27.629,32.07 27.572,31.923C27.521,31.789 27.151,31.657 26.75,31.63C26.35,31.603 25.953,31.457 25.868,31.306C25.774,31.138 25.423,31.031 24.961,31.031C24.466,31.031 24.17,30.934 24.099,30.747C24.028,30.564 23.736,30.464 23.273,30.464C22.811,30.464 22.518,30.363 22.448,30.18C22.377,29.994 22.082,29.896 21.597,29.896C21.111,29.896 20.816,29.798 20.745,29.612C20.673,29.425 20.377,29.328 19.873,29.328C19.322,29.328 19.111,29.25 19.111,29.044C19.111,28.857 18.923,28.761 18.557,28.761C18.252,28.761 17.89,28.653 17.752,28.522C17.615,28.39 17.204,28.256 16.84,28.224C16.476,28.192 16.093,28.065 15.989,27.94C15.885,27.816 15.501,27.688 15.137,27.657C14.773,27.625 14.38,27.477 14.265,27.328C14.149,27.179 13.785,27.058 13.455,27.058C13.096,27.058 12.811,26.944 12.746,26.774C12.675,26.588 12.38,26.49 11.894,26.49C11.409,26.49 11.114,26.392 11.043,26.206C10.972,26.021 10.677,25.922 10.191,25.922C9.706,25.922 9.411,25.824 9.34,25.639C9.269,25.453 8.974,25.355 8.488,25.355C8.003,25.355 7.708,25.257 7.637,25.071C7.566,24.885 7.271,24.787 6.786,24.787C6.3,24.787 6.005,24.689 5.934,24.503C5.856,24.3 5.537,24.219 4.805,24.219L3.784,24.219L3.784,86.104M106.528,52.602C106.684,52.703 106.982,52.78 107.19,52.775L107.569,52.764L107.19,52.602C106.624,52.359 106.152,52.359 106.528,52.602M26.044,56.481C26.2,56.637 26.613,56.764 26.961,56.764C27.309,56.764 27.624,56.854 27.66,56.964C27.729,57.17 28.16,57.292 28.903,57.318C29.148,57.326 29.328,57.452 29.328,57.616C29.328,57.83 29.559,57.9 30.268,57.9C31.026,57.9 31.187,57.955 31.1,58.184C31.013,58.41 31.163,58.467 31.842,58.467C32.362,58.467 32.73,58.562 32.787,58.711C32.839,58.845 33.207,58.977 33.606,59.004C34.005,59.03 34.394,59.155 34.472,59.28C34.622,59.523 34.692,59.542 35.572,59.579C35.94,59.594 36.14,59.703 36.14,59.886C36.14,60.043 36.204,60.16 36.282,60.148C36.979,60.038 37.843,60.207 37.843,60.454C37.843,60.61 37.907,60.728 37.985,60.716C38.609,60.617 39.546,60.776 39.546,60.98C39.546,61.114 39.78,61.242 40.066,61.265C40.352,61.288 40.672,61.414 40.776,61.545C40.88,61.677 41.263,61.81 41.627,61.842C41.991,61.874 42.375,62.002 42.479,62.126C42.583,62.25 42.966,62.378 43.33,62.41C43.694,62.441 44.103,62.611 44.237,62.785C44.372,62.96 44.521,63.082 44.568,63.056C44.875,62.888 45.979,63.044 45.979,63.255C45.979,63.412 46.272,63.519 46.782,63.55C47.243,63.577 47.649,63.713 47.737,63.87C47.829,64.035 48.18,64.144 48.617,64.144C49.089,64.144 49.383,64.243 49.453,64.428C49.525,64.613 49.819,64.711 50.305,64.711C50.79,64.711 51.085,64.81 51.156,64.995C51.228,65.183 51.525,65.279 52.028,65.279C52.58,65.279 52.791,65.358 52.791,65.563C52.791,65.773 53.012,65.847 53.642,65.847C54.273,65.847 54.494,65.92 54.494,66.131C54.494,66.341 54.715,66.414 55.345,66.414C55.976,66.414 56.197,66.488 56.197,66.698C56.197,66.908 56.418,66.982 57.048,66.982C57.679,66.982 57.9,67.056 57.9,67.266C57.9,67.475 58.118,67.55 58.731,67.55C59.295,67.55 59.597,67.641 59.671,67.833C59.742,68.019 60.037,68.117 60.523,68.117C61.008,68.117 61.303,68.216 61.374,68.401C61.446,68.588 61.742,68.685 62.246,68.685C62.798,68.685 63.009,68.763 63.009,68.969C63.009,69.167 63.209,69.253 63.677,69.253C64.096,69.253 64.385,69.358 64.454,69.536C64.521,69.712 64.809,69.82 65.205,69.82C65.689,69.82 65.847,69.902 65.85,70.151C65.852,70.434 65.879,70.441 66.036,70.199C66.158,70.009 66.22,69.994 66.222,70.151C66.224,70.295 66.485,70.388 66.887,70.388C67.35,70.388 67.55,70.473 67.55,70.672C67.55,70.828 67.614,70.945 67.692,70.933C68.389,70.823 69.253,70.993 69.253,71.239C69.253,71.45 69.474,71.523 70.11,71.523C70.698,71.523 71.002,71.612 71.076,71.807C71.147,71.99 71.439,72.091 71.902,72.091C72.364,72.091 72.657,72.192 72.727,72.375C72.798,72.56 73.093,72.658 73.578,72.658C74.064,72.658 74.359,72.757 74.43,72.942C74.499,73.122 74.789,73.226 75.22,73.226C75.595,73.226 76.03,73.354 76.186,73.51C76.342,73.666 76.725,73.794 77.037,73.794C77.35,73.794 77.733,73.921 77.889,74.078C78.045,74.234 78.454,74.361 78.798,74.361C79.142,74.361 79.53,74.489 79.659,74.645C79.789,74.801 80.185,74.929 80.54,74.929C80.939,74.929 81.227,75.037 81.294,75.213C81.365,75.398 81.659,75.497 82.139,75.497C82.668,75.497 82.876,75.577 82.876,75.781C82.876,75.991 83.097,76.064 83.728,76.064C84.358,76.064 84.579,76.138 84.579,76.348C84.579,76.558 84.8,76.632 85.43,76.632C86.061,76.632 86.282,76.706 86.282,76.916C86.282,77.115 86.483,77.2 86.955,77.2C87.326,77.2 87.582,77.276 87.524,77.369C87.383,77.597 87.873,77.767 88.674,77.767C89.036,77.767 89.285,77.843 89.227,77.937C89.086,78.165 89.576,78.335 90.377,78.335C90.739,78.335 90.988,78.411 90.93,78.504C90.796,78.722 91.269,78.903 91.974,78.903L92.526,78.903L92.526,154.21L91.675,154.21C91.044,154.21 90.823,154.136 90.823,153.926C90.823,153.717 90.605,153.642 89.992,153.642C89.428,153.642 89.126,153.551 89.052,153.359C88.981,153.173 88.686,153.075 88.2,153.075C87.715,153.075 87.42,152.976 87.349,152.791C87.277,152.604 86.981,152.507 86.477,152.507C85.925,152.507 85.714,152.429 85.714,152.223C85.714,152.013 85.494,151.939 84.863,151.939C84.232,151.939 84.011,151.866 84.011,151.656C84.011,151.445 83.791,151.372 83.16,151.372C82.529,151.372 82.308,151.298 82.308,151.088C82.308,150.879 82.09,150.804 81.477,150.804C80.913,150.804 80.611,150.713 80.537,150.52C80.465,150.333 80.169,150.237 79.665,150.237C79.113,150.237 78.903,150.158 78.903,149.953C78.903,149.742 78.682,149.669 78.051,149.669C77.42,149.669 77.2,149.595 77.2,149.385C77.2,149.196 77.01,149.101 76.632,149.101C76.254,149.101 76.064,149.007 76.064,148.817C76.064,148.607 75.844,148.534 75.213,148.534C74.582,148.534 74.361,148.46 74.361,148.25C74.361,148.04 74.141,147.966 73.51,147.966C72.879,147.966 72.658,147.892 72.658,147.682C72.658,147.473 72.44,147.398 71.827,147.398C71.263,147.398 70.961,147.307 70.887,147.114C70.818,146.935 70.528,146.831 70.096,146.831C69.722,146.831 69.287,146.703 69.131,146.547C68.975,146.391 68.564,146.263 68.219,146.263C67.835,146.263 67.548,146.153 67.481,145.979C67.407,145.785 67.103,145.695 66.515,145.695C65.93,145.695 65.673,145.62 65.705,145.459C65.735,145.306 65.433,145.189 64.849,145.128C64.352,145.076 63.949,144.948 63.954,144.844C63.959,144.74 63.641,144.627 63.249,144.593C62.857,144.56 62.467,144.411 62.384,144.262C62.289,144.092 61.923,143.992 61.391,143.992C60.818,143.992 60.564,143.917 60.596,143.756C60.626,143.606 60.367,143.497 59.886,143.458C59.47,143.424 59.062,143.275 58.978,143.127C58.888,142.966 58.532,142.857 58.1,142.857C57.628,142.857 57.334,142.757 57.264,142.573C57.194,142.392 56.903,142.289 56.46,142.289C56.038,142.289 55.677,142.169 55.541,141.982C55.403,141.794 55.02,141.667 54.549,141.655C54.013,141.641 53.81,141.563 53.874,141.395C53.966,141.155 53.868,141.131 52.643,141.096C52.217,141.084 52.052,141.001 52.117,140.832C52.169,140.697 52.15,140.579 52.075,140.571C52.001,140.562 51.74,140.533 51.496,140.507C51.253,140.48 50.994,140.362 50.921,140.244C50.848,140.126 50.451,139.976 50.039,139.911C49.627,139.845 49.235,139.703 49.168,139.595C49.101,139.486 48.697,139.388 48.27,139.377C47.787,139.364 47.494,139.267 47.493,139.12C47.493,138.904 47.319,138.857 46.294,138.799C46.103,138.788 45.875,138.65 45.787,138.493C45.696,138.33 45.313,138.186 44.904,138.16C44.507,138.135 44.096,138.002 43.991,137.863C43.886,137.725 43.561,137.637 43.27,137.668C42.96,137.702 42.606,137.592 42.419,137.406C42.243,137.23 41.801,137.059 41.437,137.025C41.074,136.992 40.691,136.862 40.587,136.737C40.482,136.611 40.248,136.5 40.066,136.49C39.884,136.48 39.565,136.461 39.357,136.447C39.149,136.434 38.978,136.307 38.978,136.165C38.978,136.022 38.829,135.906 38.647,135.907C37.621,135.911 37.275,135.833 37.275,135.597C37.275,135.454 37.126,135.338 36.944,135.339C35.881,135.343 35.572,135.268 35.572,135.005C35.572,134.849 35.509,134.731 35.43,134.743C34.799,134.843 33.869,134.683 33.869,134.474C33.869,134.317 33.576,134.21 33.067,134.18C32.606,134.153 32.199,134.016 32.112,133.859C32.019,133.695 31.669,133.586 31.231,133.586C30.759,133.586 30.466,133.486 30.395,133.302C30.324,133.116 30.029,133.018 29.544,133.018C29.058,133.018 28.763,132.92 28.692,132.734C28.632,132.578 28.417,132.45 28.214,132.45C27.719,132.45 27.23,132.252 27.33,132.091C27.374,132.02 27.139,131.941 26.808,131.917C25.951,131.855 25.521,131.695 25.65,131.486C25.711,131.387 25.691,131.318 25.605,131.333C24.726,131.486 24.787,134.31 24.787,93.756L24.787,56.197L25.274,56.197C25.541,56.197 25.888,56.325 26.044,56.481" style="fill:rgb(36,148,211);"/>
    </g>
</svg>
